<svg width="50" height="29" viewBox="0 0 50 29" fill="none" xmlns="http://www.w3.org/2000/svg">
<path d="M24.3696 -0.0150757V28.015H20.2292V-0.0150757H24.3696ZM0 20.1076C0.67036 20.1272 1.66605 20.1371 2.98705 20.1371V4.97133H0V1.46019H16.7985V4.97133H13.9593V19.5765C15.5366 19.3995 17.0351 19.1438 18.4547 18.8093V22.232C16.6407 22.7237 14.4029 23.0778 11.7412 23.2942C9.09916 23.5302 6.329 23.6482 3.43068 23.6482C2.60258 23.6482 1.45902 23.6286 0 23.5892V20.1076ZM7.06837 20.0781C7.73872 20.0584 8.67529 20.0092 9.87798 19.9305V4.97133H7.06837V20.0781ZM49.8028 -0.0150757V15.0327H45.7214V-0.0150757H49.8028ZM26.5866 0.899591H40.5754V4.32221H30.6679V5.9155H39.9839V9.2201H30.6679V10.9904C31.0622 11.0101 31.6833 11.0199 32.5311 11.0199C36.5336 11.0199 39.8065 10.6954 42.3499 10.0463V13.4099C39.6093 14.1574 35.8238 14.5311 30.9932 14.5311C30.0271 14.5311 28.5582 14.4917 26.5866 14.413V0.899591ZM49.8028 16.4489V27.838H28.6864V16.4489H32.7677V18.6028H45.7214V16.4489H49.8028ZM45.7214 21.9664H32.7677V24.4154H45.7214V21.9664Z" fill="white"/>
</svg>
